<svg width="25" height="25" viewBox="0 0 35 36" fill="none" xmlns="http://www.w3.org/2000/svg">
<g clip-path="url(#clip0_60_4)">
<path d="M17.5 0.423582C20.9612 0.423583 24.3446 1.44994 27.2225 3.37286C30.1003 5.29579 32.3434 8.02891 33.6679 11.2266C34.9924 14.4243 35.339 17.943 34.6637 21.3377C33.9885 24.7323 32.3218 27.8505 29.8744 30.2979C27.4269 32.7454 24.3087 34.4121 20.9141 35.0873C17.5194 35.7626 14.0007 35.416 10.803 34.0915C7.60533 32.7669 4.8722 30.5239 2.94928 27.6461C1.02635 24.7682 -1.83248e-06 21.3847 -1.5299e-06 17.9236C-1.32899e-06 15.6254 0.452647 13.3498 1.33211 11.2266C2.21156 9.10342 3.50061 7.17424 5.12563 5.54921C6.75066 3.92419 8.67984 2.63515 10.803 1.75569C12.9262 0.876233 15.2019 0.423582 17.5 0.423582ZM11.935 26.9396C12.0003 27.1031 12.0998 27.2507 12.2269 27.3725C12.354 27.4944 12.5057 27.5876 12.6718 27.6459C12.8379 27.7043 13.0146 27.7264 13.1899 27.7108C13.3653 27.6952 13.5353 27.6423 13.6885 27.5556L18.4397 23.8631L21.4882 26.6771C21.559 26.7293 21.6418 26.763 21.7289 26.7749C21.8161 26.7868 21.9048 26.7766 21.987 26.7453L21.4025 21.5146L21.385 21.5303L21.3727 21.4271C21.3727 21.4271 12.824 13.6431 12.4757 13.3123C12.1222 12.9816 12.2395 12.9098 12.2395 12.9098C12.2185 12.5073 12.8712 12.9098 12.8712 12.9098L24.199 20.1968L28.9152 18.5903C28.9152 18.5903 29.6397 18.3313 29.708 17.7591C29.7797 17.1921 28.8925 16.8841 28.8925 16.8841L10.1377 9.43258C10.1377 9.43258 8.596 8.74658 8.596 9.88408L11.935 26.9396Z" fill="white"/>
</g>
<defs>
<clipPath id="clip0_60_4">
<rect width="35" height="35" fill="white" transform="matrix(-1 -8.74228e-08 -8.74228e-08 1 35 0.423584)"/>
</clipPath>
</defs>
</svg>
