<svg width="25" height="25" viewBox="0 0 37 37" fill="none" xmlns="http://www.w3.org/2000/svg">
<path fill-rule="evenodd" clip-rule="evenodd" d="M10.114 2.79957C15.6371 1.63159 21.3646 1.63159 26.8877 2.79957L27.4828 2.92413C29.0364 3.25273 30.4632 3.98235 31.6049 5.03192C32.7466 6.0815 33.5583 7.40994 33.95 8.86969C35.35 14.0887 35.35 19.5559 33.95 24.7749C33.5765 26.167 32.8205 27.441 31.7587 28.4677C30.697 29.4943 29.3671 30.2371 27.9041 30.6208L27.0878 35.2311C27.0617 35.3775 26.9947 35.5146 26.8936 35.6281C26.7925 35.7417 26.6611 35.8275 26.513 35.8767C26.3649 35.9259 26.2056 35.9366 26.0517 35.9078C25.8978 35.8789 25.7548 35.8116 25.6378 35.7127L20.8435 31.6555C17.2446 31.8632 13.6327 31.591 10.114 30.8467L9.51711 30.7221C7.96353 30.3935 6.53666 29.6639 5.39499 28.6143C4.25333 27.5647 3.44157 26.2363 3.04989 24.7765C1.65003 19.5575 1.65003 14.0904 3.04989 8.87135C3.44171 7.41139 4.25373 6.0828 5.39573 5.0332C6.53772 3.98361 7.96497 3.25412 9.51887 2.92579L10.114 2.79957ZM25.406 8.73516C25.7323 8.69024 26.065 8.75236 26.3487 8.91121L26.3733 8.91121C27.0316 9.27658 27.625 9.73661 28.1306 10.278C28.5519 10.7381 28.7801 11.2031 28.8398 11.6515C28.8749 11.9172 28.8503 12.1862 28.7678 12.4403L28.7362 12.4569C28.2622 13.7739 27.6443 15.0411 26.8894 16.2335C25.9161 17.9084 24.7183 19.4574 23.3258 20.8422L23.2836 20.8986L23.2169 20.9451L23.1766 20.99L23.1274 21.0298C21.6585 22.3512 20.0174 23.4897 18.2436 24.4178C16.2161 25.4624 14.9855 25.9557 14.2464 26.1616L14.2464 26.1716C14.0305 26.2347 13.8339 26.2629 13.6355 26.2629C13.0061 26.2189 12.4103 25.9769 11.9432 25.5754C11.3727 25.0971 10.8899 24.5341 10.5142 23.908L10.5142 23.8963C10.1614 23.2652 10.2807 22.6707 10.7898 22.2671C11.8124 21.4218 12.9182 20.6711 14.0919 20.0251C14.8784 19.6215 15.6771 19.8656 16.0001 20.2742L16.69 21.0979C17.0446 21.5065 17.6872 21.45 17.6872 21.45L17.7047 21.46C22.4989 20.3024 23.7787 15.7104 23.7787 15.7104C23.7787 15.7104 23.8384 15.0859 23.3942 14.7671L22.5305 14.1094C22.1162 13.7905 21.8283 13.0366 22.2725 12.2925C22.9508 11.1811 23.7428 10.1353 24.6371 9.17029C24.8322 8.94317 25.1057 8.78848 25.4095 8.7335L25.406 8.73516ZM17.3062 6.73892C17.539 6.73892 17.7623 6.8264 17.9269 6.98213C18.0915 7.13786 18.184 7.34907 18.184 7.5693C18.184 7.78953 18.0915 8.00075 17.9269 8.15647C17.7623 8.3122 17.539 8.39969 17.3062 8.39969C15.0855 8.39969 13.2423 9.08559 11.7834 10.4009C11.0339 11.12 10.4493 11.972 10.0666 12.9054C9.68213 13.8404 9.50658 14.8385 9.55222 15.8383C9.55706 15.9473 9.53915 16.0562 9.49951 16.1587C9.45988 16.2612 9.39929 16.3553 9.3212 16.4357C9.16351 16.5979 8.94413 16.6943 8.71134 16.7035C8.47855 16.7128 8.25141 16.6342 8.07989 16.485C7.90837 16.3358 7.80651 16.1283 7.79673 15.908C7.74228 14.6782 7.95807 13.4511 8.43046 12.3042C8.90491 11.1518 9.62429 10.1038 10.5441 9.22509L10.5616 9.20848C12.3715 7.57262 14.6624 6.73892 17.3062 6.73892ZM17.3659 9.46922C17.5987 9.46922 17.822 9.55671 17.9866 9.71244C18.1512 9.86817 18.2436 10.0794 18.2436 10.2996C18.2436 10.5198 18.1512 10.7311 17.9866 10.8868C17.822 11.0425 17.5987 11.13 17.3659 11.13L17.3361 11.13C15.735 11.2379 14.5694 11.7428 13.7531 12.5715C12.9157 13.4252 12.4821 14.4864 12.5155 15.7984C12.5208 16.0186 12.4335 16.2319 12.2727 16.3912C12.1119 16.5505 11.8907 16.6428 11.6579 16.6479C11.4251 16.653 11.1998 16.5703 11.0314 16.4182C10.863 16.266 10.7654 16.0568 10.76 15.8366C10.7179 14.1144 11.3042 12.628 12.4663 11.4422L12.4663 11.4389C13.6548 10.2332 15.2856 9.59544 17.2483 9.47088L17.2781 9.46756L17.3659 9.46922ZM17.3993 12.251C17.5167 12.2412 17.6351 12.2539 17.7472 12.2883C17.8594 12.3227 17.9631 12.3782 18.0521 12.4514C18.1411 12.5245 18.2136 12.6139 18.2653 12.7142C18.317 12.8145 18.3468 12.9236 18.353 13.035C18.3591 13.1464 18.3414 13.2578 18.301 13.3626C18.2606 13.4674 18.1983 13.5635 18.1179 13.645C18.0374 13.7265 17.9403 13.7919 17.8325 13.8371C17.7248 13.8824 17.6084 13.9067 17.4905 13.9085C16.7567 13.945 16.288 14.1543 15.9931 14.4349C15.6964 14.7173 15.4752 15.1706 15.4349 15.8798C15.4327 15.9912 15.4068 16.1011 15.3588 16.2029C15.3107 16.3047 15.2415 16.3962 15.1553 16.4722C15.0691 16.5481 14.9675 16.6069 14.8568 16.6449C14.7461 16.6829 14.6284 16.6995 14.5107 16.6936C14.3931 16.6877 14.2779 16.6594 14.172 16.6105C14.0662 16.5616 13.9718 16.493 13.8946 16.4088C13.8173 16.3247 13.7588 16.2267 13.7224 16.1207C13.686 16.0147 13.6726 15.9028 13.6829 15.7918C13.7391 14.7953 14.0691 13.9151 14.745 13.2674C15.4243 12.6197 16.3495 12.3042 17.3993 12.251Z" fill="white"/>
</svg>
