<svg id="categories" width="40" height="41" viewBox="0 0 40 41" fill="none" xmlns="http://www.w3.org/2000/svg">
<path d="M1.75 8.09859C1.75 5.04848 4.22261 2.57587 7.27273 2.57587H10.9091C13.9592 2.57587 16.4318 5.04848 16.4318 8.09859V11.735C16.4318 14.7851 13.9592 17.2577 10.9091 17.2577H7.27273C4.22261 17.2577 1.75 14.7851 1.75 11.735V8.09859ZM1.75 29.9168C1.75 26.8667 4.22261 24.394 7.27273 24.394H10.9091C13.9592 24.394 16.4318 26.8667 16.4318 29.9168V33.5531C16.4318 36.6033 13.9592 39.0759 10.9091 39.0759H7.27273C4.22261 39.0759 1.75 36.6033 1.75 33.5531V29.9168ZM23.5682 8.09859C23.5682 5.04848 26.0408 2.57587 29.0909 2.57587H32.7273C35.7774 2.57587 38.25 5.04848 38.25 8.09859V11.735C38.25 14.7851 35.7774 17.2577 32.7273 17.2577H29.0909C26.0408 17.2577 23.5682 14.7851 23.5682 11.735V8.09859ZM23.5682 29.9168C23.5682 26.8667 26.0408 24.394 29.0909 24.394H32.7273C35.7774 24.394 38.25 26.8667 38.25 29.9168V33.5531C38.25 36.6033 35.7774 39.0759 32.7273 39.0759H29.0909C26.0408 39.0759 23.5682 36.6033 23.5682 33.5531V29.9168Z" stroke="currentColor" stroke-width="3.5"/>
</svg>
