<svg id="home" width="40" height="41" viewBox="0 0 40 41" fill="none" xmlns="http://www.w3.org/2000/svg">
<path d="M21.6943 3.49109L21.6945 3.49122L35.8655 16.774C35.8655 16.774 35.8655 16.7741 35.8656 16.7741C36.5419 17.4081 37.0788 18.1698 37.4451 19.0119C37.8115 19.854 38 20.7599 38 21.6745V36.4399C38 37.0641 37.749 37.6681 37.2934 38.1177C36.837 38.5681 36.2123 38.8259 35.5556 38.8259H4.44444C3.78765 38.8259 3.16301 38.5681 2.70657 38.1177L1.30469 39.5383L2.70656 38.1177C2.25102 37.6681 2 37.0641 2 36.4399V21.6746C2 20.7599 2.18852 19.854 2.55487 19.0119C2.9212 18.1698 3.45808 17.4082 4.1343 16.7742C4.13438 16.7741 4.13447 16.7741 4.13455 16.774L18.3076 3.49132L18.3079 3.49109C18.7606 3.06665 19.3664 2.82587 20.0011 2.82587C20.6358 2.82587 21.2416 3.06665 21.6943 3.49109Z" stroke="currentColor" stroke-width="4" stroke-linecap="round" stroke-linejoin="round"/>
</svg>
