<svg width="80" height="62" viewBox="0 0 80 62" fill="none" xmlns="http://www.w3.org/2000/svg">
<g opacity="0.8">
<path d="M0 24.6361L9.68502 24.4426C9.68502 24.4426 10.1589 21.3812 11.1061 19.516C11.1061 19.516 11.5623 23.246 13.194 22.8237C13.194 22.8237 16.9136 21.7326 13.5099 16.3312C13.5099 16.3312 13.2993 15.8915 16.4402 11.5101C16.4402 11.5101 15.4395 15.3727 17.8613 15.3727C17.8613 15.3727 21.4456 15.049 19.3789 9.02595C19.3789 9.02595 19.7985 8.08678 23.0601 5.20492C23.0601 5.20492 21.4779 9.34967 24.1903 9.47915C24.1903 9.47915 26.8381 10.127 26.5798 3.84492C26.5798 3.84492 28.4202 2.38781 31.0684 1.31915C31.0684 1.31915 28.6143 4.03915 31.0684 5.82037C31.0684 5.82037 31.4462 5.90978 32.0368 5.80881C32.0368 5.80881 34.2815 4.97254 34.5174 1.09293C34.5174 1.09293 36.3521 0.273233 39.4764 0C39.4764 0 36.2068 3.13313 39.0041 4.31701C39.0041 4.31701 39.6036 4.68119 40.3845 4.31701C40.3845 4.31701 41.8921 3.6611 42.8732 0.8197C42.8732 0.8197 46.4187 0.56535 47.9955 1.27522C47.9955 1.27522 45.4534 2.27566 45.8396 3.76014C45.8396 3.76014 45.5179 5.27699 47.4805 5.72865C47.4805 5.72865 50.0549 5.76102 51.1167 3.11501C51.1167 3.11501 54.2061 3.79251 56.1045 5.05116C56.1045 5.05116 52.436 5.21263 53.3372 8.08447C53.3372 8.08447 54.6887 11.5375 58.486 7.923C58.486 7.923 61.0281 9.05254 62.8946 11.1821C62.8946 11.1821 58.486 10.2784 59.8375 14.2478C59.8375 14.2478 60.7387 16.7971 64.7289 14.7319C64.7289 14.7319 66.8848 16.8938 68.0111 19.1849C68.0111 19.1849 64.6001 17.6681 64.5037 20.4755C64.5037 20.4755 64.2785 23.9285 69.1375 23.1863C69.1375 23.1863 69.4396 23.3096 69.7816 24.3675L80 24.6962L69.7247 25.1105H57.0714L40.0006 11.3255L30.8532 18.8211H30.2126V16.5146C30.2126 16.5146 32.2332 16.7289 32.2659 15.3119C32.2659 15.3119 32.611 13.2528 30.1795 13.7634H28.7503L26.3189 12.6431H25.7274C25.7274 12.6431 25.0868 15.8225 25.7109 17.8488H26.2858L27.0909 17.4041L27.3538 17.4018V21.2683L22.2784 25.1105H9.70731L0 24.6361Z" fill="#61892F"/>
<path d="M2.29846 45.924L11.9308 45.6084H67.2064L77.0905 45.924L67.1945 46.2732C67.1945 46.2732 67.6164 47.0316 67.7221 47.3488C67.7221 47.3488 68.2847 47.9661 64.7504 51.6692C64.7504 51.6692 65.6296 48.3538 63.1325 48.2833C63.1325 48.2833 59.7384 48.7065 61.7609 53.7326C61.7609 53.7326 60.806 55.1172 57.8169 57.1728C57.8169 57.1728 59.7242 53.8613 56.8204 53.4902C56.8204 53.4902 53.7172 53.1761 54.3436 58.3717C54.3436 58.3717 53.2903 59.4851 49.618 60.7985C49.618 60.7985 52.6639 57.3154 48.9916 56.6017C48.9916 56.6017 46.4579 56.3732 46.0025 60.9981C46.0025 60.9981 44.5506 61.7974 40.7645 61.8259C40.7645 61.8259 44.9495 59.1995 40.9352 57.7721C40.9352 57.7721 38.3162 57.2869 37.3482 61.2551C37.3482 61.2551 34.7292 61.6263 31.9961 60.7129C31.9961 60.7129 36.9212 58.8003 32.7078 56.6306C32.7078 56.6306 30.3448 55.8599 28.9501 59.0003C28.9501 59.0003 27.8115 59.0859 23.8828 57.3443C23.8828 57.3443 28.4094 57.2017 26.1886 54.0328C26.1886 54.0328 24.993 51.9486 20.9791 54.9176C20.9791 54.9176 20.7228 54.8606 16.7941 51.8631C16.7941 51.8631 21.2066 52.7194 19.8973 49.3793C19.8973 49.3793 19.8404 47.2382 14.7446 48.7226C14.7446 48.7226 13.3497 47.3237 12.6948 46.3244L2.29885 45.924H2.29846Z" fill="#61892F"/>
<path d="M39.7573 17.3763H36.8951V20.2466H39.7573V17.3763Z" fill="#61892F"/>
<path d="M43.6779 17.3763H40.8157V20.2466H43.6779V17.3763Z" fill="#61892F"/>
<path d="M39.7573 21.249H36.8951V24.1193H39.7573V21.249Z" fill="#61892F"/>
<path d="M43.6779 21.249H40.8157V24.1193H43.6779V21.249Z" fill="#61892F"/>
<path d="M10.3372 37.7403H8.60786V32.345H6.20602V37.7403H4.47668V30.9962H10.3372V37.7403Z" fill="#61892F"/>
<path d="M13.0754 37.7403V39.3782H11.3941V32.634H12.8832L12.9793 33.1158C13.2802 32.9169 13.5896 32.7705 13.9062 32.6772C14.2233 32.5843 14.4908 32.5377 14.7087 32.5377H15.141C15.5764 32.5377 15.9253 32.6695 16.1882 32.9327C16.4507 33.1963 16.5821 33.5462 16.5821 33.9829V36.1988C16.5821 36.6805 16.4461 37.0578 16.174 37.331C15.9019 37.6043 15.5253 37.7403 15.0449 37.7403H13.0754ZM14.2283 33.9347C13.8886 33.9347 13.5043 33.999 13.0754 34.1274V36.4396H14.5165C14.7724 36.4396 14.9008 36.3113 14.9008 36.0543V34.2719C14.9008 34.1755 14.8685 34.0954 14.8047 34.031C14.7406 33.9671 14.6606 33.9347 14.5645 33.9347H14.2283Z" fill="#61892F"/>
<path d="M22.6345 36.2951C22.6345 36.7769 22.4984 37.1541 22.2263 37.4274C21.9543 37.7006 21.5777 37.8366 21.0973 37.8366H18.8876C18.4072 37.8366 18.031 37.7002 17.7585 37.4274C17.4861 37.1545 17.3504 36.7769 17.3504 36.2951V34.0792C17.3504 33.5975 17.4864 33.2202 17.7585 32.947C18.0306 32.6737 18.4072 32.5377 18.8876 32.5377H21.0973C21.5777 32.5377 21.9539 32.6741 22.2263 32.947C22.4984 33.2202 22.6345 33.5975 22.6345 34.0792V36.2951ZM20.9532 34.2237C20.9532 33.9671 20.8248 33.8383 20.5689 33.8383H19.416C19.1597 33.8383 19.0317 33.9671 19.0317 34.2237V36.1506C19.0317 36.4077 19.1597 36.536 19.416 36.536H20.5689C20.8248 36.536 20.9532 36.4077 20.9532 36.1506V34.2237Z" fill="#61892F"/>
<path d="M30.2724 36.1988C30.2724 36.6805 30.1364 37.0578 29.8643 37.331C29.5922 37.6043 29.2156 37.7403 28.7352 37.7403H27.6784V39.3782H25.9971V37.7403H24.9403C24.46 37.7403 24.0837 37.6039 23.8113 37.331C23.5388 37.0582 23.4031 36.6805 23.4031 36.1988V34.1756C23.4031 33.6938 23.5392 33.3165 23.8113 33.0433C24.0833 32.7701 24.46 32.634 24.9403 32.634H25.9971V30.9962H27.6784V32.634H28.7352C29.2156 32.634 29.5918 32.7705 29.8643 33.0433C30.1364 33.3165 30.2724 33.6938 30.2724 34.1756V36.1988ZM25.0844 36.0543C25.0844 36.3113 25.2124 36.4397 25.4687 36.4397H26.1412V33.9347H25.4687C25.2124 33.9347 25.0844 34.0634 25.0844 34.3201V36.0543ZM28.5911 34.3201C28.5911 34.0634 28.4628 33.9347 28.2068 33.9347H27.6304V36.4397H28.2068C28.4628 36.4397 28.5911 36.3113 28.5911 36.0543V34.3201Z" fill="#61892F"/>
<path d="M34.4518 32.634H36.2291V37.7403H34.5478V34.9463L32.9146 37.7403H31.1372V32.634H32.8185V35.428L34.4518 32.634Z" fill="#61892F"/>
<path d="M45.9324 33.9828L44.5874 36.3915H43.2423L41.8973 33.9828V37.7403H40.1679V30.9962H41.9933L43.9148 34.5609L45.8364 30.9962H47.6618V37.7403H45.9324V33.9828Z" fill="#61892F"/>
<path d="M48.9588 32.7304C50.1309 32.602 51.1877 32.5377 52.1293 32.5377C52.5647 32.5377 52.9136 32.6695 53.1765 32.9327C53.4389 33.1963 53.5704 33.5462 53.5704 33.9829V37.7403H52.0812L51.9852 37.2586C51.6839 37.4578 51.3749 37.6039 51.0582 37.6971C50.7416 37.7904 50.4737 37.8366 50.2558 37.8366H49.9196C49.4838 37.8366 49.1348 37.7052 48.8724 37.4416C48.6095 37.1784 48.4785 36.8285 48.4785 36.3915V35.9579C48.4785 35.5213 48.6095 35.1714 48.8724 34.9078C49.1352 34.6442 49.4838 34.5128 49.9196 34.5128H51.8891V34.1274C51.8891 34.031 51.8568 33.9509 51.793 33.8865C51.7288 33.8225 51.6489 33.7902 51.5528 33.7902C51.1362 33.7902 50.677 33.8094 50.174 33.848C49.6709 33.8865 49.2663 33.9154 48.9588 33.9347V32.7304ZM50.7362 36.4878C51.0755 36.4878 51.4598 36.4238 51.8891 36.2951V35.7171H50.496C50.3999 35.7171 50.3196 35.7494 50.2558 35.8134C50.192 35.8774 50.1597 35.9579 50.1597 36.0543V36.1506C50.1597 36.247 50.1916 36.3275 50.2558 36.3915C50.3196 36.4558 50.3999 36.4878 50.496 36.4878H50.7362Z" fill="#61892F"/>
<path d="M58.9505 37.644C57.7527 37.7723 56.6959 37.8366 55.7801 37.8366C55.3443 37.8366 54.9954 37.7052 54.7329 37.4416C54.47 37.1784 54.339 36.8285 54.339 36.3915V34.1755C54.339 33.6938 54.475 33.3165 54.7471 33.0433C55.0192 32.7701 55.3958 32.634 55.8762 32.634H58.9505V33.9347H56.4046C56.1483 33.9347 56.0203 34.0634 56.0203 34.3201V36.1988C56.0203 36.2951 56.0522 36.3757 56.1164 36.4396C56.1802 36.504 56.2605 36.536 56.3565 36.536C56.933 36.536 57.7977 36.4878 58.9505 36.3915V37.644Z" fill="#61892F"/>
<path d="M62.6015 33.9347V37.7403H60.9202V33.9347H59.335V32.634H64.1867V33.9347H62.6015Z" fill="#61892F"/>
<path d="M69.4704 37.644C68.2342 37.7723 67.1132 37.8366 66.1079 37.8366C65.6721 37.8366 65.3231 37.7052 65.0607 37.4416C64.7978 37.1784 64.6667 36.8285 64.6667 36.3915V34.0792C64.6667 33.5975 64.8028 33.2202 65.0749 32.947C65.347 32.6737 65.7236 32.5377 66.2039 32.5377H68.1254C68.6058 32.5377 68.982 32.6741 69.2545 32.947C69.5266 33.2202 69.6626 33.5975 69.6626 34.0792V35.8616H66.348V36.247C66.348 36.3433 66.3799 36.4238 66.4441 36.4878C66.5079 36.5522 66.5882 36.5842 66.6843 36.5842C67.3184 36.5842 68.2468 36.536 69.4704 36.4396V37.644ZM66.7323 33.742C66.476 33.742 66.348 33.8707 66.348 34.1274V34.6573H67.9813V34.1274C67.9813 33.8707 67.8529 33.742 67.597 33.742H66.7323Z" fill="#61892F"/>
<path d="M72.2086 37.7403V39.3782H70.5273V32.634H72.0165L72.1126 33.1158C72.4135 32.9169 72.7228 32.7705 73.0395 32.6772C73.3565 32.5843 73.624 32.5377 73.8419 32.5377H74.2742C74.7096 32.5377 75.0586 32.6695 75.3214 32.9327C75.5839 33.1963 75.7153 33.5462 75.7153 33.9829V36.1988C75.7153 36.6805 75.5793 37.0578 75.3072 37.331C75.0351 37.6043 74.6585 37.7403 74.1782 37.7403H72.2086ZM73.3615 33.9347C73.0218 33.9347 72.6375 33.999 72.2086 34.1274V36.4396H73.6497C73.9057 36.4396 74.034 36.3113 74.034 36.0543V34.2719C74.034 34.1755 74.0018 34.0954 73.938 34.031C73.8738 33.9671 73.7939 33.9347 73.6978 33.9347H73.3615Z" fill="#61892F"/>
</g>
</svg>
