<svg id="products" width="40" height="41" viewBox="0 0 40 41" fill="none" xmlns="http://www.w3.org/2000/svg">
<path d="M39.9761 36.5236L37.5192 13.4243C37.4175 12.4866 37.0115 11.6229 36.378 10.9968C35.7444 10.3707 34.9273 10.0256 34.0812 10.0268H28.9363C28.7543 7.52031 27.734 5.1821 26.0782 3.47726C24.4224 1.77242 22.2524 0.825867 20 0.825867C17.7476 0.825867 15.5776 1.77242 13.9218 3.47726C12.266 5.1821 11.2457 7.52031 11.0637 10.0268H5.91879C5.0727 10.0256 4.25557 10.3707 3.62203 10.9968C2.98848 11.6229 2.58247 12.4866 2.48082 13.4243L0.0238904 36.5236C-0.0334745 37.0648 0.012751 37.6135 0.159509 38.1334C0.306268 38.6532 0.550214 39.1323 0.87521 39.539C1.20021 39.9457 1.59885 40.2707 2.04476 40.4925C2.49067 40.7144 2.97369 40.828 3.46186 40.8258H36.5381C37.0263 40.828 37.5093 40.7144 37.9552 40.4925C38.4012 40.2707 38.7998 39.9457 39.1248 39.539C39.4498 39.1323 39.6937 38.6532 39.8405 38.1334C39.9873 37.6135 40.0335 37.0648 39.9761 36.5236ZM20 5.40697C21.1608 5.4071 22.2827 5.87418 23.1601 6.72265C24.0376 7.57111 24.6118 8.74414 24.7776 10.0268H15.2224C15.3882 8.74414 15.9624 7.57111 16.8399 6.72265C17.7173 5.87418 18.8392 5.4071 20 5.40697ZM4.22394 36.206L6.5188 14.6467H11.0344V18.4965C11.0344 19.1092 11.2524 19.6967 11.6404 20.1299C12.0284 20.5631 12.5546 20.8065 13.1034 20.8065C13.6521 20.8065 14.1784 20.5631 14.5664 20.1299C14.9544 19.6967 15.1724 19.1092 15.1724 18.4965V14.6467H24.8276V18.4965C24.8276 19.1092 25.0456 19.6967 25.4336 20.1299C25.8217 20.5631 26.3479 20.8065 26.8966 20.8065C27.4454 20.8065 27.9716 20.5631 28.3596 20.1299C28.7476 19.6967 28.9656 19.1092 28.9656 18.4965V14.6467H33.4812L35.7761 36.206H4.22394Z" fill="#6B6E70"/>
</svg>
