<svg width="40" height="41" viewBox="0 0 40 41" fill="none" xmlns="http://www.w3.org/2000/svg">
<path d="M16 4.82587C13.8783 4.82587 11.8434 5.66872 10.3431 7.16901C8.84285 8.6693 8 10.7041 8 12.8259C8 14.9476 8.84285 16.9824 10.3431 18.4827C11.8434 19.983 13.8783 20.8259 16 20.8259C18.1217 20.8259 20.1566 19.983 21.6569 18.4827C23.1571 16.9824 24 14.9476 24 12.8259C24 10.7041 23.1571 8.6693 21.6569 7.16901C20.1566 5.66872 18.1217 4.82587 16 4.82587ZM4 12.8259C4 9.64327 5.26428 6.59102 7.51472 4.34059C9.76516 2.09015 12.8174 0.825867 16 0.825867C19.1826 0.825867 22.2348 2.09015 24.4853 4.34059C26.7357 6.59102 28 9.64327 28 12.8259C28 16.0085 26.7357 19.0607 24.4853 21.3111C22.2348 23.5616 19.1826 24.8259 16 24.8259C12.8174 24.8259 9.76516 23.5616 7.51472 21.3111C5.26428 19.0607 4 16.0085 4 12.8259ZM29.656 4.33987C29.8417 4.15391 30.0623 4.0064 30.3051 3.90575C30.5479 3.8051 30.8082 3.75329 31.071 3.75329C31.3338 3.75329 31.5941 3.8051 31.8369 3.90575C32.0797 4.0064 32.3003 4.15391 32.486 4.33987C33.6005 5.4542 34.4846 6.77716 35.0878 8.2332C35.691 9.68924 36.0014 11.2498 36.0014 12.8259C36.0014 14.4019 35.691 15.9625 35.0878 17.4185C34.4846 18.8746 33.6005 20.1975 32.486 21.3119C32.3002 21.4977 32.0796 21.6451 31.8368 21.7457C31.594 21.8462 31.3338 21.898 31.071 21.898C30.8082 21.898 30.548 21.8462 30.3052 21.7457C30.0624 21.6451 29.8418 21.4977 29.656 21.3119C29.4702 21.126 29.3228 20.9054 29.2222 20.6627C29.1216 20.4199 29.0699 20.1597 29.0699 19.8969C29.0699 19.6341 29.1216 19.3739 29.2222 19.1311C29.3228 18.8883 29.4702 18.6677 29.656 18.4819C31.1558 16.9816 31.9983 14.9472 31.9983 12.8259C31.9983 10.7046 31.1558 8.67009 29.656 7.16987C29.47 6.98412 29.3225 6.76354 29.2219 6.52075C29.1212 6.27795 29.0694 6.0177 29.0694 5.75487C29.0694 5.49204 29.1212 5.23178 29.2219 4.98899C29.3225 4.74619 29.47 4.52561 29.656 4.33987ZM31.06 30.3399C31.1889 29.8258 31.5166 29.3839 31.9711 29.1113C32.4256 28.8387 32.9698 28.7576 33.484 28.8859C36.14 29.5499 37.822 31.2459 38.788 33.1819C39.724 35.0519 40 37.1419 40 38.8259C40 39.3563 39.7893 39.865 39.4142 40.2401C39.0391 40.6152 38.5304 40.8259 38 40.8259C37.4696 40.8259 36.9609 40.6152 36.5858 40.2401C36.2107 39.865 36 39.3563 36 38.8259C36 37.5119 35.776 36.0999 35.212 34.9699C34.678 33.9039 33.858 33.1019 32.514 32.7659C31.9999 32.6369 31.558 32.3092 31.2854 31.8547C31.0128 31.4002 30.9317 30.8541 31.06 30.3399ZM9 32.8259C6.48 32.8259 4 35.2519 4 38.8259C4 39.3563 3.78929 39.865 3.41421 40.2401C3.03914 40.6152 2.53043 40.8259 2 40.8259C1.46957 40.8259 0.960859 40.6152 0.585786 40.2401C0.210714 39.865 0 39.3563 0 38.8259C0 33.5619 3.786 28.8259 9 28.8259H23C28.214 28.8259 32 33.5619 32 38.8259C32 39.3563 31.7893 39.865 31.4142 40.2401C31.0391 40.6152 30.5304 40.8259 30 40.8259C29.4696 40.8259 28.9609 40.6152 28.5858 40.2401C28.2107 39.865 28 39.3563 28 38.8259C28 35.2519 25.52 32.8259 23 32.8259H9Z" fill="#6B6E70"/>
</svg>
