<svg width="150" height="116" viewBox="0 0 150 116" fill="none" xmlns="http://www.w3.org/2000/svg">
<path d="M0 46.1927L18.1594 45.8299C18.1594 45.8299 19.0479 40.0897 20.824 36.5924C20.824 36.5924 21.6793 43.5863 24.7388 42.7943C24.7388 42.7943 31.713 40.7487 25.3311 30.621C25.3311 30.621 24.9362 29.7965 30.8253 21.5814C30.8253 21.5814 28.949 28.8239 33.4899 28.8239C33.4899 28.8239 40.2105 28.2169 36.3354 16.9237C36.3354 16.9237 37.1222 15.1627 43.2376 9.75923C43.2376 9.75923 40.2711 17.5306 45.3567 17.7734C45.3567 17.7734 50.3214 18.9881 49.8372 7.20923C49.8372 7.20923 53.2879 4.47713 58.2532 2.47341C58.2532 2.47341 53.6518 7.57341 58.2532 10.9132C58.2532 10.9132 58.9615 11.0808 60.069 10.8915C60.069 10.8915 64.2778 9.32351 64.7202 2.04925C64.7202 2.04925 68.1601 0.512312 74.0182 0C74.0182 0 67.8878 5.87461 73.1327 8.09439C73.1327 8.09439 74.2567 8.77724 75.7209 8.09439C75.7209 8.09439 78.5476 6.86455 80.3872 1.53694C80.3872 1.53694 87.0351 1.06003 89.9915 2.39103C89.9915 2.39103 85.225 4.26686 85.9492 7.05026C85.9492 7.05026 85.3461 9.89435 89.0259 10.7412C89.0259 10.7412 93.8529 10.8019 95.8438 5.84065C95.8438 5.84065 101.636 7.11096 105.196 9.47092C105.196 9.47092 98.3175 9.77368 100.007 15.1584C100.007 15.1584 102.541 21.6327 109.661 14.8556C109.661 14.8556 114.428 16.9735 117.927 20.9665C117.927 20.9665 109.661 19.2721 112.195 26.7147C112.195 26.7147 113.885 31.4946 121.367 27.6222C121.367 27.6222 125.409 31.6759 127.521 35.9717C127.521 35.9717 121.125 33.1276 120.944 38.3916C120.944 38.3916 120.522 44.866 129.633 43.4743C129.633 43.4743 130.199 43.7055 130.84 45.689L150 46.3054L130.734 47.0822L107.009 47.0822L75.0011 21.2353L57.8497 35.2896L56.6485 35.2896L56.6485 30.9649C56.6485 30.9649 60.4372 31.3667 60.4985 28.7097C60.4985 28.7097 61.1455 24.849 56.5866 25.8064L53.9068 25.8064L49.3479 23.7058L48.239 23.7058C48.239 23.7058 47.0378 29.6672 48.208 33.4665L49.2859 33.4665L50.7955 32.6326L51.2883 32.6283L51.2883 39.878L41.772 47.0822L18.2012 47.0822L0 46.1927Z" fill="#4BCD1D"/>
<path d="M4.31006 86.1074L22.3708 85.5156L126.012 85.5156L144.545 86.1074L125.99 86.7621C125.99 86.7621 126.781 88.1841 126.979 88.7788C126.979 88.7788 128.034 89.9364 121.407 96.8797C121.407 96.8797 123.056 90.6633 118.374 90.5311C118.374 90.5311 112.01 91.3245 115.802 100.748C115.802 100.748 114.012 103.345 108.407 107.199C108.407 107.199 111.983 100.99 106.539 100.294C106.539 100.294 100.72 99.705 101.895 109.447C101.895 109.447 99.9197 111.534 93.0341 113.997C93.0341 113.997 98.7452 107.466 91.8596 106.128C91.8596 106.128 87.109 105.7 86.2551 114.371C86.2551 114.371 83.5329 115.87 76.434 115.923C76.434 115.923 84.2808 110.999 76.7539 108.323C76.7539 108.323 71.8433 107.413 70.0282 114.853C70.0282 114.853 65.1177 115.549 59.9931 113.837C59.9931 113.837 69.2277 110.25 61.3275 106.182C61.3275 106.182 56.8968 104.737 54.282 110.625C54.282 110.625 52.1469 110.786 44.7807 107.52C44.7807 107.52 53.2681 107.253 49.104 101.311C49.104 101.311 46.8624 97.4036 39.3362 102.97C39.3362 102.97 38.8556 102.863 31.4894 97.2432C31.4894 97.2432 39.7628 98.8488 37.3078 92.5861C37.3078 92.5861 37.2012 88.5714 27.6467 91.3548C27.6467 91.3548 25.031 88.7319 23.8032 86.8582L4.31006 86.1074Z" fill="#4BCD1D"/>
<path d="M74.5449 32.5807L69.1782 32.5807L69.1782 37.9625L74.5449 37.9625L74.5449 32.5807Z" fill="#E0CA02"/>
<path d="M81.8965 32.5807L76.5298 32.5807L76.5298 37.9625L81.8965 37.9625L81.8965 32.5807Z" fill="#E0CA02"/>
<path d="M74.5449 39.8419L69.1782 39.8419L69.1782 45.2237L74.5449 45.2237L74.5449 39.8419Z" fill="#E0CA02"/>
<path d="M81.8965 39.8419L76.5298 39.8419L76.5298 45.2237L81.8965 45.2237L81.8965 39.8419Z" fill="#E0CA02"/>
<path d="M19.3825 70.7632L16.14 70.7632L16.14 60.647L11.6365 60.647L11.6365 70.7632L8.39404 70.7632L8.39404 58.1179L19.3825 58.1179L19.3825 70.7632Z" fill="#E0CA02"/>
<path d="M24.5162 70.7629L24.5162 73.8339L21.3638 73.8339L21.3638 61.1887L24.1559 61.1887L24.3361 62.0919C24.9003 61.7191 25.4803 61.4445 26.074 61.2696C26.6685 61.0955 27.17 61.0081 27.5786 61.0081L28.3892 61.0081C29.2056 61.0081 29.8598 61.2552 30.3527 61.7487C30.8448 62.243 31.0913 62.8991 31.0913 63.7177L31.0913 67.8726C31.0913 68.7758 30.8362 69.4833 30.326 69.9956C29.8159 70.5079 29.1097 70.7629 28.209 70.7629L24.5162 70.7629ZM26.6779 63.6274C26.0409 63.6274 25.3203 63.7481 24.5162 63.9887L24.5162 68.3242L27.2183 68.3242C27.6982 68.3242 27.9388 68.0836 27.9388 67.6016L27.9388 64.2597C27.9388 64.079 27.8783 63.9287 27.7587 63.8081C27.6384 63.6881 27.4885 63.6274 27.3083 63.6274L26.6779 63.6274Z" fill="#E0CA02"/>
<path d="M42.4389 68.0533C42.4389 68.9565 42.1838 69.6639 41.6736 70.1762C41.1635 70.6885 40.4573 70.9436 39.5567 70.9436L35.4135 70.9436C34.5128 70.9436 33.8074 70.6878 33.2965 70.1762C32.7856 69.6646 32.5312 68.9565 32.5312 68.0533L32.5312 63.8984C32.5312 62.9952 32.7863 62.2878 33.2965 61.7754C33.8066 61.2631 34.5128 61.0081 35.4135 61.0081L39.5567 61.0081C40.4573 61.0081 41.1628 61.2639 41.6736 61.7754C42.1838 62.2878 42.4389 62.9952 42.4389 63.8984L42.4389 68.0533ZM39.2864 64.1694C39.2864 63.6881 39.0458 63.4468 38.5659 63.4468L36.4042 63.4468C35.9236 63.4468 35.6837 63.6881 35.6837 64.1694L35.6837 67.7823C35.6837 68.2643 35.9236 68.5049 36.4042 68.5049L38.5659 68.5049C39.0458 68.5049 39.2864 68.2643 39.2864 67.7823L39.2864 64.1694Z" fill="#E0CA02"/>
<path d="M56.7613 67.8727C56.7613 68.7759 56.5062 69.4833 55.996 69.9956C55.4859 70.508 54.7797 70.763 53.879 70.763L51.8975 70.763L51.8975 73.834L48.7451 73.834L48.7451 70.763L46.7636 70.763C45.8629 70.763 45.1574 70.5072 44.6466 69.9956C44.1357 69.4841 43.8813 68.7759 43.8813 67.8727L43.8813 64.0791C43.8813 63.1759 44.1364 62.4685 44.6466 61.9562C45.1567 61.4439 45.8629 61.1888 46.7636 61.1888L48.7451 61.1888L48.7451 58.1178L51.8975 58.1178L51.8975 61.1888L53.879 61.1888C54.7797 61.1888 55.4852 61.4446 55.996 61.9562C56.5062 62.4685 56.7613 63.1759 56.7613 64.0791L56.7613 67.8727ZM47.0338 67.6017C47.0338 68.0837 47.2737 68.3243 47.7543 68.3243L49.0153 68.3243L49.0153 63.6275L47.7543 63.6275C47.2737 63.6275 47.0338 63.8688 47.0338 64.3501L47.0338 67.6017ZM53.6088 64.3501C53.6088 63.8688 53.3682 63.6275 52.8883 63.6275L51.8074 63.6275L51.8074 68.3243L52.8883 68.3243C53.3682 68.3243 53.6088 68.0837 53.6088 67.6017L53.6088 64.3501Z" fill="#E0CA02"/>
<path d="M64.5971 61.1888L67.9297 61.1888L67.9297 70.7631L64.7772 70.7631L64.7772 65.5244L61.7149 70.7631L58.3823 70.7631L58.3823 61.1888L61.5347 61.1888L61.5347 66.4276L64.5971 61.1888Z" fill="#E0CA02"/>
<path d="M86.1234 63.7178L83.6014 68.2339L81.0795 68.2339L78.5575 63.7178L78.5575 70.7629L75.3149 70.7629L75.3149 58.1178L78.7376 58.1178L82.3404 64.8017L85.9433 58.1178L89.366 58.1178L89.366 70.7629L86.1234 70.7629L86.1234 63.7178Z" fill="#E0CA02"/>
<path d="M91.7982 61.3693C93.9958 61.1287 95.9774 61.0081 97.7427 61.0081C98.5591 61.0081 99.2134 61.2552 99.7062 61.7487C100.198 62.243 100.445 62.8991 100.445 63.7177L100.445 70.7629L97.6527 70.7629L97.4725 69.8597C96.9076 70.2333 96.3283 70.5072 95.7345 70.682C95.1408 70.8569 94.6386 70.9436 94.23 70.9436H93.5995C92.7824 70.9436 92.1282 70.6972 91.636 70.2029C91.1432 69.7094 90.8975 69.0533 90.8975 68.2339V67.421C90.8975 66.6023 91.1432 65.9462 91.636 65.452C92.1289 64.9577 92.7824 64.7113 93.5995 64.7113L97.2924 64.7113V63.9887C97.2924 63.8081 97.2319 63.6578 97.1122 63.5371C96.9919 63.4172 96.842 63.3565 96.6619 63.3565C95.8808 63.3565 95.0198 63.3926 94.0765 63.4648C93.1333 63.5371 92.3746 63.5913 91.7982 63.6274L91.7982 61.3693ZM95.1307 68.4145C95.767 68.4145 96.4875 68.2946 97.2924 68.0533L97.2924 66.9694L94.6804 66.9694C94.5002 66.9694 94.3496 67.0301 94.23 67.15C94.1104 67.27 94.0499 67.421 94.0499 67.6016V67.7823C94.0499 67.9629 94.1097 68.114 94.23 68.2339C94.3496 68.3546 94.5002 68.4145 94.6804 68.4145H95.1307Z" fill="#E0CA02"/>
<path d="M110.532 70.5823C108.286 70.8229 106.304 70.9436 104.587 70.9436C103.77 70.9436 103.116 70.6972 102.624 70.203C102.131 69.7094 101.885 69.0533 101.885 68.2339L101.885 64.0791C101.885 63.1758 102.14 62.4684 102.65 61.9561C103.161 61.4438 103.867 61.1887 104.767 61.1887L110.532 61.1887L110.532 63.6274L105.758 63.6274C105.278 63.6274 105.038 63.8688 105.038 64.35L105.038 67.8726C105.038 68.0533 105.097 68.2043 105.218 68.3242C105.337 68.4449 105.488 68.5049 105.668 68.5049C106.749 68.5049 108.37 68.4146 110.532 68.2339L110.532 70.5823Z" fill="#E0CA02"/>
<path d="M117.377 63.6276L117.377 70.7631L114.225 70.7631L114.225 63.6276L111.252 63.6276L111.252 61.1888L120.349 61.1888L120.349 63.6276L117.377 63.6276Z" fill="#E0CA02"/>
<path d="M130.257 70.5823C127.939 70.8229 125.837 70.9436 123.952 70.9436C123.135 70.9436 122.481 70.6972 121.989 70.2029C121.496 69.7094 121.25 69.0533 121.25 68.2339L121.25 63.8984C121.25 62.9952 121.505 62.2878 122.015 61.7754C122.525 61.2631 123.232 61.0081 124.132 61.0081L127.735 61.0081C128.636 61.0081 129.341 61.2639 129.852 61.7754C130.362 62.2878 130.617 62.9952 130.617 63.8984L130.617 67.2403L124.402 67.2403V67.9629C124.402 68.1436 124.462 68.2946 124.583 68.4145C124.702 68.5352 124.853 68.5952 125.033 68.5952C126.222 68.5952 127.963 68.5049 130.257 68.3242L130.257 70.5823ZM125.123 63.2661C124.642 63.2661 124.402 63.5075 124.402 63.9887V64.9823L127.465 64.9823V63.9887C127.465 63.5075 127.224 63.2661 126.744 63.2661L125.123 63.2661Z" fill="#E0CA02"/>
<path d="M135.391 70.7629L135.391 73.8339L132.239 73.8339L132.239 61.1887L135.031 61.1887L135.211 62.0919C135.775 61.7191 136.355 61.4445 136.949 61.2696C137.543 61.0955 138.045 61.0081 138.454 61.0081L139.264 61.0081C140.081 61.0081 140.735 61.2552 141.228 61.7487C141.72 62.243 141.966 62.8991 141.966 63.7177L141.966 67.8726C141.966 68.7758 141.711 69.4833 141.201 69.9956C140.691 70.5079 139.985 70.7629 139.084 70.7629L135.391 70.7629ZM137.553 63.6274C136.916 63.6274 136.195 63.7481 135.391 63.9887L135.391 68.3242L138.093 68.3242C138.573 68.3242 138.814 68.0836 138.814 67.6016L138.814 64.2597C138.814 64.079 138.753 63.9287 138.634 63.8081C138.513 63.6881 138.363 63.6274 138.183 63.6274L137.553 63.6274Z" fill="#E0CA02"/>
</svg>
