<?xml version="1.0" encoding="UTF-8"?>
<svg xmlns="http://www.w3.org/2000/svg" viewBox="0 0 2081.7 1604.3">
  <defs>
    <style>
      .cls-1 {
        fill: #342b16;
      }
    </style>
  </defs>
  <g id="_Слой_1" data-name="Слой 1">
    <g>
      <path class="cls-1" d="m268.99,979.31h-45v-140h-62.5v140h-45v-175h152.5v175Z"/>
      <path class="cls-1" d="m340.24,979.31v42.5h-43.75v-175h38.75l2.5,12.5c7.83-5.16,15.88-8.96,24.12-11.38,8.25-2.41,15.21-3.62,20.88-3.62h11.25c11.33,0,20.41,3.42,27.25,10.25,6.83,6.84,10.25,15.92,10.25,27.25v57.5c0,12.5-3.54,22.29-10.62,29.38s-16.88,10.62-29.38,10.62h-51.25Zm30-98.75c-8.84,0-18.84,1.67-30,5v60h37.5c6.66,0,10-3.33,10-10v-46.25c0-2.5-.84-4.58-2.5-6.25-1.67-1.66-3.75-2.5-6.25-2.5h-8.75Z"/>
      <path class="cls-1" d="m588.98,941.81c0,12.5-3.54,22.29-10.62,29.38s-16.88,10.62-29.38,10.62h-57.5c-12.5,0-22.29-3.54-29.38-10.62-7.09-7.08-10.62-16.88-10.62-29.38v-57.5c0-12.5,3.54-22.29,10.62-29.38s16.88-10.62,29.38-10.62h57.5c12.5,0,22.29,3.54,29.38,10.62,7.08,7.09,10.62,16.88,10.62,29.38v57.5Zm-43.75-53.75c0-6.66-3.34-10-10-10h-30c-6.67,0-10,3.34-10,10v50c0,6.67,3.33,10,10,10h30c6.66,0,10-3.33,10-10v-50Z"/>
      <path class="cls-1" d="m787.73,939.31c0,12.5-3.54,22.29-10.62,29.38s-16.88,10.62-29.38,10.62h-27.5v42.5h-43.75v-42.5h-27.5c-12.5,0-22.29-3.54-29.38-10.62-7.09-7.08-10.62-16.88-10.62-29.38v-52.5c0-12.5,3.54-22.29,10.62-29.38s16.88-10.62,29.38-10.62h27.5v-42.5h43.75v42.5h27.5c12.5,0,22.29,3.54,29.38,10.62,7.08,7.09,10.62,16.88,10.62,29.38v52.5Zm-135-3.75c0,6.67,3.33,10,10,10h17.5v-65h-17.5c-6.67,0-10,3.34-10,10v45Zm91.25-45c0-6.66-3.34-10-10-10h-15v65h15c6.66,0,10-3.33,10-10v-45Z"/>
      <path class="cls-1" d="m896.48,846.81h46.25v132.5h-43.75v-72.5l-42.5,72.5h-46.25v-132.5h43.75v72.5l42.5-72.5Z"/>
      <path class="cls-1" d="m1195.22,881.81l-35,62.5h-35l-35-62.5v97.5h-45v-175h47.5l50,92.5,50-92.5h47.5v175h-45v-97.5Z"/>
      <path class="cls-1" d="m1273.97,849.31c30.5-3.33,58-5,82.5-5,11.33,0,20.41,3.42,27.25,10.25,6.83,6.84,10.25,15.92,10.25,27.25v97.5h-38.75l-2.5-12.5c-7.84,5.17-15.88,8.96-24.12,11.38s-15.21,3.62-20.88,3.62h-8.75c-11.34,0-20.42-3.41-27.25-10.25-6.84-6.83-10.25-15.91-10.25-27.25v-11.25c0-11.33,3.41-20.41,10.25-27.25s15.91-10.25,27.25-10.25h51.25v-10c0-2.5-.84-4.58-2.5-6.25-1.67-1.66-3.75-2.5-6.25-2.5-10.84,0-22.79.5-35.88,1.5-13.09,1-23.62,1.75-31.62,2.25v-31.25Zm46.25,97.5c8.83,0,18.83-1.66,30-5v-15h-36.25c-2.5,0-4.59.84-6.25,2.5s-2.5,3.75-2.5,6.25v2.5c0,2.5.83,4.59,2.5,6.25,1.66,1.67,3.75,2.5,6.25,2.5h6.25Z"/>
      <path class="cls-1" d="m1533.97,976.81c-31.17,3.33-58.67,5-82.5,5-11.34,0-20.42-3.41-27.25-10.25-6.84-6.83-10.25-15.91-10.25-27.25v-57.5c0-12.5,3.54-22.29,10.62-29.38s16.88-10.62,29.38-10.62h80v33.75h-66.25c-6.67,0-10,3.34-10,10v48.75c0,2.5.83,4.59,2.5,6.25,1.66,1.67,3.75,2.5,6.25,2.5,15,0,37.5-1.25,67.5-3.75v32.5Z"/>
      <path class="cls-1" d="m1628.97,880.56v98.75h-43.75v-98.75h-41.25v-33.75h126.25v33.75h-41.25Z"/>
      <path class="cls-1" d="m1807.71,976.81c-32.17,3.33-61.34,5-87.5,5-11.34,0-20.42-3.41-27.25-10.25-6.84-6.83-10.25-15.91-10.25-27.25v-60c0-12.5,3.54-22.29,10.62-29.38s16.88-10.62,29.38-10.62h50c12.5,0,22.29,3.54,29.38,10.62,7.08,7.09,10.62,16.88,10.62,29.38v46.25h-86.25v10c0,2.5.83,4.59,2.5,6.25,1.66,1.67,3.75,2.5,6.25,2.5,16.5,0,40.66-1.25,72.5-3.75v31.25Zm-71.25-101.25c-6.67,0-10,3.34-10,10v13.75h42.5v-13.75c0-6.66-3.34-10-10-10h-22.5Z"/>
      <path class="cls-1" d="m1878.96,979.31v42.5h-43.75v-175h38.75l2.5,12.5c7.83-5.16,15.88-8.96,24.12-11.38,8.25-2.41,15.21-3.62,20.88-3.62h11.25c11.33,0,20.41,3.42,27.25,10.25,6.83,6.84,10.25,15.92,10.25,27.25v57.5c0,12.5-3.54,22.29-10.62,29.38s-16.88,10.62-29.38,10.62h-51.25Zm30-98.75c-8.84,0-18.84,1.67-30,5v60h37.5c6.66,0,10-3.33,10-10v-46.25c0-2.5-.84-4.58-2.5-6.25-1.67-1.66-3.75-2.5-6.25-2.5h-8.75Z"/>
    </g>
  </g>
  <g id="_Слой_2" data-name="Слой 2">
    <path class="cls-1" d="m0,639.28l252.02-5.02s12.33-79.44,36.98-127.84c0,0,11.87,96.79,54.33,85.83,0,0,96.79-28.31,8.22-168.47,0,0-5.48-11.41,76.25-125.1,0,0-26.04,100.23,36.98,100.23,0,0,93.27-8.4,39.49-164.69,0,0,10.92-24.37,95.79-99.15,0,0-41.17,107.55,29.41,110.91,0,0,68.9,16.81,62.18-146.2,0,0,47.89-37.81,116.8-65.54,0,0-63.86,70.58,0,116.8,0,0,9.83,2.32,25.2-.3,0,0,58.41-21.7,64.55-122.37,0,0,47.74-21.27,129.04-28.36,0,0-85.08,81.3-12.29,112.02,0,0,15.6,9.45,35.92,0,0,0,39.23-17.02,64.76-90.75,0,0,92.26-6.6,133.29,11.82,0,0-66.15,25.96-56.1,64.48,0,0-8.37,39.36,42.7,51.08,0,0,66.99.84,94.62-67.82,0,0,80.39,17.58,129.79,50.24,0,0-95.46,4.19-72.01,78.71,0,0,35.17,89.6,133.98-4.19,0,0,66.15,29.31,114.72,84.57,0,0-114.72-23.45-79.55,79.55,0,0,23.45,66.15,127.28,12.56,0,0,56.1,56.1,85.41,115.55,0,0-88.76-39.36-91.27,33.49,0,0-5.86,89.6,120.58,70.34,0,0,7.86,3.2,16.76,30.65l265.9,8.53-267.38,10.75h-329.26l-444.21-357.7-238.03,194.5h-16.67v-59.85s52.58,5.56,53.43-31.21c0,0,8.98-53.43-54.29-40.18h-37.19l-63.27-29.07h-15.39s-16.67,82.5-.43,135.08h14.96l20.95-11.54,6.84-.06v100.33l-132.07,99.7H252.6L0,639.28Z"/>
    <path class="cls-1" d="m59.81,1191.67l250.65-8.19h1438.36l257.2,8.19-257.51,9.06s10.98,19.68,13.73,27.91c0,0,14.64,16.02-77.33,112.11,0,0,22.88-86.03-42.1-87.86,0,0-88.32,10.98-35.69,141.4,0,0-24.85,35.93-102.63,89.27,0,0,49.63-85.93-25.93-95.56,0,0-80.75-8.15-64.45,126.67,0,0-27.41,28.89-122.97,62.97,0,0,79.26-90.38-16.3-108.9,0,0-65.93-5.93-77.78,114.08,0,0-37.78,20.74-136.3,21.48,0,0,108.9-68.15,4.44-105.19,0,0-68.15-12.59-93.34,90.38,0,0-68.15,9.63-139.27-14.07,0,0,128.16-49.63,18.52-105.93,0,0-61.49-20-97.78,61.49,0,0-29.63,2.22-131.86-42.97,0,0,117.79-3.7,60-85.93,0,0-31.11-54.08-135.56,22.96,0,0-6.67-1.48-108.9-79.26,0,0,114.82,22.22,80.75-64.45,0,0-1.48-55.56-134.08-17.04,0,0-36.3-36.3-53.34-62.23l-270.52-10.39Z"/>
    <rect class="cls-1" x="960.07" y="450.9" width="74.48" height="74.48"/>
    <rect class="cls-1" x="1062.09" y="450.9" width="74.48" height="74.48"/>
    <rect class="cls-1" x="960.07" y="551.39" width="74.48" height="74.48"/>
    <rect class="cls-1" x="1062.09" y="551.39" width="74.48" height="74.48"/>
  </g>
</svg>