<svg width="36" height="37" viewBox="0 0 36 37" fill="none" xmlns="http://www.w3.org/2000/svg">
<path d="M3.549 9.80093C8.627 1.92036 19.026 -0.414625 27.0682 4.47425C34.916 9.36313 37.4428 20.0165 32.3648 27.8727L31.9518 28.5051L33.6526 34.8777L27.2868 33.1751L26.6551 33.5886C23.9096 35.0723 20.9211 35.9236 17.9569 35.9236C14.7741 35.9236 11.5912 35.0723 8.84567 33.3697C0.997846 28.2619 -1.33463 17.8274 3.549 9.75229L3.549 9.80093ZM7.99528 26.1945C8.84567 27.4593 9.91472 28.3106 11.3968 28.5295C12.2472 28.5295 13.3163 28.9429 17.5439 27.2647C21.1398 25.5621 24.1283 22.7893 26.2421 19.603C27.5055 18.1193 28.1615 16.1978 28.3559 14.2763C28.3559 12.5737 27.7242 11.09 26.6551 10.0198C26.2421 9.60635 25.8047 9.38745 25.3917 9.38745L24.3226 9.38745C23.9096 9.38745 23.4723 9.38745 23.2536 10.2387C22.8405 11.3089 21.7715 13.8628 21.7715 14.0817C21.5528 14.3006 21.65 15.9303 22.6219 16.8545C23.1564 17.4626 23.2536 17.4869 23.0349 17.9247C22.1845 19.1895 21.1155 20.4786 20.0707 21.5488C18.8073 22.619 17.5196 23.4703 16.0375 24.1027C15.6244 24.3216 15.1871 24.3216 14.9684 23.8838C14.7498 23.4703 13.705 22.4001 13.2677 21.9623C12.8546 21.5488 12.6359 21.5488 12.1986 21.7434L8.79708 23.446C8.38403 23.6649 7.94669 23.8595 7.72802 24.0784C7.50935 24.7108 7.50935 25.5621 7.94669 26.1945L7.99528 26.1945Z" fill="white"/>
</svg>
