<svg width="39" height="24" viewBox="0 0 39 24" fill="none" xmlns="http://www.w3.org/2000/svg">
<g id="&#208;&#184;&#208;&#186;&#208;&#190;&#208;&#189;&#208;&#186;&#208;&#176;">
<path id="Vector" d="M12.9544 22.6363C13.8223 22.6363 14.6548 22.2915 15.2685 21.6777C15.8823 21.064 16.2271 20.2315 16.2271 19.3635C16.2271 18.4956 15.8823 17.6631 15.2685 17.0494C14.6548 16.4356 13.8223 16.0908 12.9544 16.0908C12.0864 16.0908 11.254 16.4356 10.6402 17.0494C10.0264 17.6631 9.68164 18.4956 9.68164 19.3635C9.68164 20.2315 10.0264 21.064 10.6402 21.6777C11.254 22.2915 12.0864 22.6363 12.9544 22.6363ZM29.318 22.6363C30.186 22.6363 31.0184 22.2915 31.6322 21.6777C32.2459 21.064 32.5907 20.2315 32.5907 19.3635C32.5907 18.4956 32.2459 17.6631 31.6322 17.0494C31.0184 16.4356 30.186 16.0908 29.318 16.0908C28.45 16.0908 27.6176 16.4356 27.0038 17.0494C26.3901 17.6631 26.0453 18.4956 26.0453 19.3635C26.0453 20.2315 26.3901 21.064 27.0038 21.6777C27.6176 22.2915 28.45 22.6363 29.318 22.6363Z" stroke="black" stroke-width="1.5" stroke-miterlimit="1.5" stroke-linecap="round" stroke-linejoin="round"/>
<path id="Vector_2" d="M16.3091 19.3635H24.4091V2.34534C24.4091 2.08495 24.3057 1.83522 24.1215 1.65109C23.9374 1.46697 23.6877 1.36353 23.4273 1.36353H1.5M9.10909 19.3635H5.75455C5.62561 19.3635 5.49794 19.3381 5.37882 19.2888C5.2597 19.2394 5.15147 19.1671 5.0603 19.076C4.96912 18.9848 4.8968 18.8766 4.84746 18.7574C4.79812 18.6383 4.77273 18.5106 4.77273 18.3817V10.3635" stroke="black" stroke-width="1.5" stroke-linecap="round"/>
<path id="Vector_3" d="M3.13623 6.27271H9.68168" stroke="black" stroke-width="1.5" stroke-linecap="round" stroke-linejoin="round"/>
<path id="Vector_4" d="M24.4092 6.27271H33.5892C33.779 6.27275 33.9647 6.3278 34.1238 6.43119C34.283 6.53458 34.4087 6.68187 34.4859 6.85525L37.415 13.4465C37.4708 13.5717 37.4998 13.7071 37.5001 13.8442V18.3818C37.5001 18.5107 37.4747 18.6384 37.4254 18.7575C37.376 18.8766 37.3037 18.9849 37.2125 19.076C37.1214 19.1672 37.0131 19.2395 36.894 19.2889C36.7749 19.3382 36.6472 19.3636 36.5183 19.3636H33.4092M24.4092 19.3636H26.0455" stroke="black" stroke-width="1.5" stroke-linecap="round"/>
</g>
</svg>
