<svg width="31" height="31" viewBox="0 0 31 31" fill="none" xmlns="http://www.w3.org/2000/svg">
<path id="&#208;&#184;&#208;&#186;&#208;&#190;&#208;&#189;&#208;&#186;&#208;&#176;" fill-rule="evenodd" clip-rule="evenodd" d="M30.5629 5.49939L28.8348 5.09161L24.1645 9.7368L21.5192 7.04188L26.0743 2.2615L25.6755 0.506252C24.7129 0.184125 23.7061 0.0136561 22.6912 0.000953718C21.584 -0.0160774 20.4852 0.195157 19.4632 0.621495C18.4764 1.06831 17.5845 1.70026 16.8356 2.48312C16.002 3.27301 15.3419 4.22774 14.8971 5.28663C14.0407 7.394 14.0407 9.75257 14.8971 11.8599C10.2783 16.4054 5.7191 21.0111 1.22074 25.6758C0.755488 26.2853 0.533937 27.0455 0.59154 27.8101C0.63694 28.6324 1.00665 29.4032 1.61953 29.9531C1.89426 30.2523 2.22215 30.5005 2.58771 30.6801C2.96435 30.8463 3.36978 30.9416 3.77965 30.9615C4.47975 30.9482 5.15105 30.6823 5.6717 30.2147C9.1013 26.9856 15.6725 20.3525 19.4056 16.4652C20.4181 16.8952 21.5059 17.1168 22.6048 17.1146C23.711 17.1137 24.8057 16.8911 25.8244 16.4598C26.8431 16.0285 27.765 15.3974 28.5357 14.6036C30.1188 12.9886 31.003 10.8152 30.9971 8.55334C31.0227 7.51831 30.876 6.48623 30.5629 5.49939ZM4.33131 28.6434C4.24604 28.7191 4.14325 28.7724 4.03222 28.7985C3.923 28.8174 3.81134 28.8174 3.70211 28.7985C3.58759 28.781 3.47851 28.7379 3.38308 28.6722C3.28067 28.6122 3.19407 28.5286 3.13051 28.4284C2.82034 28.1115 2.53011 27.5087 2.82034 27.1696C5.85558 23.9405 12.1055 17.6288 16.0137 13.7703C16.2352 14.0629 16.4789 14.3421 16.7404 14.6036C17.0018 14.8762 17.2832 15.1289 17.5823 15.3593C13.8026 19.2377 7.63685 25.4742 4.33131 28.6434ZM28.9633 8.55334C28.9677 10.2487 28.3075 11.8777 27.12 13.0922C25.935 14.255 24.3412 14.9064 22.6812 14.9064C21.0212 14.9064 19.4275 14.255 18.2425 13.0922C17.374 12.1855 16.7807 11.0508 16.5316 9.82001C16.2826 8.58925 16.388 7.31305 16.8356 6.13988C17.1336 5.34145 17.5958 4.61447 18.1923 4.00595C18.7888 3.39743 19.5063 2.92091 20.2985 2.60723C21.0506 2.29232 21.8581 2.13107 22.6735 2.13296H23.2362L19.2107 6.28393V7.82642L23.409 12.0062H24.8713L28.9633 7.98156V8.55334ZM5.01148 12.5979H8.40341L9.96535 14.187L11.4675 12.6932L9.99415 11.1906V11.0953L10.1204 7.4408L9.63302 6.47231L3.29667 2.30139L1.98731 2.44766L0.146224 4.32923L0 5.65674L4.0721 12.1237L5.01148 12.5979ZM2.91782 4.54863L8.0445 7.92615L7.9581 10.415H5.57421L2.26868 5.18026L2.91782 4.54863ZM18.659 19.9735L20.1522 18.482L27.0336 25.5407C27.6132 26.15 27.9365 26.959 27.9365 27.8001C27.9365 28.6412 27.6132 29.4502 27.0336 30.0595C26.5978 30.5071 26.0373 30.8131 25.4252 30.9376C24.8131 31.0621 24.1778 30.9994 23.6018 30.7576C23.2342 30.5945 22.9045 30.3568 22.6336 30.0595L15.6725 22.961L17.1768 21.4584L24.1158 28.537C24.2091 28.6399 24.3252 28.7196 24.4548 28.7697C24.7098 28.8733 24.9951 28.8733 25.2501 28.7697C25.3797 28.7195 25.4957 28.6399 25.5891 28.537C25.6861 28.4409 25.7616 28.3253 25.8106 28.1979C25.8615 28.0679 25.8885 27.9297 25.8904 27.7901C25.8882 27.6507 25.862 27.5128 25.8129 27.3823C25.7638 27.2549 25.6883 27.1393 25.5913 27.0432L18.659 19.9735Z" fill="black"/>
</svg>
