<svg width="26" height="33" viewBox="0 0 26 33" fill="none" xmlns="http://www.w3.org/2000/svg">
<path id="&#208;&#184;&#208;&#186;&#208;&#190;&#208;&#189;&#208;&#186;&#208;&#176;" d="M25.6 10.7C24.2 4.79995 19 0.699951 13 0.699951C5.8 0.699951 0 6.49995 0 13.7C0 20.5 5.3 26.1 12 26.6V31.5999C12 32.1999 12.4 32.5999 13 32.5999C13.6 32.5999 14 32.1999 14 31.5999V17.2999L18.7 12.6C19.1 12.2 19.1 11.6 18.7 11.2C18.3 10.8 17.7 10.8 17.3 11.2L14 14.6V11.6L10.7 8.29995C10.3 7.89995 9.7 7.89995 9.3 8.29995C8.9 8.69995 8.9 9.29995 9.3 9.69995L12 12.4V18.6L8.2 14.8C7.8 14.4 7.2 14.4 6.8 14.8C6.4 15.2 6.4 15.8 6.8 16.2L12 21.4V24.6C6.4 24.1 2 19.4 2 13.7C2 7.59995 6.9 2.69995 13 2.69995C19.1 2.69995 24 7.59995 24 13.7C24 18.6 20.7 22.9 16 24.2999V26.4C23 24.6999 27.3 17.7 25.6 10.7Z" fill="black"/>
</svg>
