<svg width="36" height="26" viewBox="0 0 36 26" fill="none" xmlns="http://www.w3.org/2000/svg">
<path id="&#208;&#184;&#208;&#186;&#208;&#190;&#208;&#189;&#208;&#186;&#208;&#176;" d="M1.51318 15.8877C1.97115 15.8877 2.29172 15.7045 2.47491 15.3381C2.6581 14.9717 2.6581 14.6054 2.47491 14.239C2.29172 13.8726 1.97115 13.6894 1.51318 13.6894C1.05521 13.6894 0.734637 13.8726 0.55145 14.239C0.368264 14.6054 0.368264 14.9717 0.55145 15.3381C0.734637 15.7045 1.05521 15.8877 1.51318 15.8877ZM26.8101 14.8916C26.6956 14.7428 26.4752 14.4565 26.1489 14.0329C25.8226 13.6093 25.5851 13.3002 25.4362 13.1055C25.2874 12.9109 25.0698 12.6304 24.7836 12.264C24.4974 11.8976 24.2541 11.5942 24.0537 11.3538C23.8534 11.1134 23.6215 10.8443 23.3582 10.5466C23.0949 10.249 22.8373 9.96846 22.5854 9.70513L20.4387 12.1095C19.4884 13.1857 18.2948 13.7123 16.8579 13.6894C15.4211 13.6665 14.2447 13.1055 13.3287 12.0064C12.6761 11.2164 12.3527 10.3119 12.3584 9.29296C12.3641 8.27398 12.699 7.37522 13.3631 6.59668L16.4028 3.05889C16.1509 2.93295 15.859 2.83849 15.527 2.77552C15.1949 2.71255 14.923 2.6782 14.7112 2.67248C14.4994 2.66675 14.176 2.66962 13.7409 2.68107C13.3058 2.69252 13.0253 2.69824 12.8994 2.69824C11.8461 2.69824 10.9416 3.07606 10.1859 3.83171L7.47247 6.54516H4.81054V15.8877C4.86779 15.8877 4.988 15.8848 5.17119 15.8791C5.35438 15.8734 5.48032 15.8734 5.54901 15.8791C5.61771 15.8848 5.72934 15.8963 5.8839 15.9134C6.03846 15.9306 6.15582 15.9564 6.23596 15.9907C6.31611 16.0251 6.41629 16.0737 6.5365 16.1367C6.65672 16.1997 6.76262 16.277 6.85422 16.3685L11.9548 21.3833C13.2715 22.6541 14.571 23.2896 15.8533 23.2896C16.7463 23.2896 17.4619 23.0205 18 22.4824C18.6526 22.7114 19.2966 22.6656 19.932 22.345C20.5675 22.0244 20.9825 21.5378 21.1771 20.8852C22.0244 20.9539 22.7514 20.7021 23.3582 20.1296C23.5872 19.9235 23.7933 19.663 23.9764 19.3482C24.1596 19.0333 24.2398 18.7442 24.2169 18.4809C24.3314 18.5954 24.5775 18.6527 24.9553 18.6527C25.4477 18.6527 25.8885 18.5324 26.2777 18.292C26.667 18.0516 26.9504 17.7482 27.1278 17.3818C27.3053 17.0154 27.374 16.6061 27.3339 16.1539C27.2938 15.7016 27.1192 15.2809 26.8101 14.8916ZM29.5407 15.8877H31.1894V7.09472H29.5923L26.896 4.00345C26.1403 3.13331 25.1729 2.69824 23.9936 2.69824H21.1256C20.1066 2.69824 19.2708 3.08179 18.6182 3.84888L15.0289 8.0221C14.7083 8.39993 14.5481 8.82927 14.5481 9.31013C14.5481 9.791 14.7026 10.2203 15.0117 10.5982C15.5041 11.1821 16.1338 11.4798 16.9009 11.4912C17.668 11.5026 18.3034 11.2221 18.8071 10.6497L22.1217 6.90581C22.4079 6.64248 22.7142 6.5194 23.0405 6.53657C23.3668 6.55375 23.6358 6.70831 23.8476 7.00026C24.0595 7.29222 24.1081 7.61566 23.9936 7.97058C24.1768 8.18812 24.4974 8.54876 24.9553 9.05253C25.4133 9.55629 25.7568 9.94556 25.9858 10.2203C26.3178 10.6325 26.7901 11.2365 27.4026 12.0322C28.0151 12.8279 28.3844 13.3116 28.5103 13.4834C29.1057 14.239 29.4491 15.0404 29.5407 15.8877ZM34.4868 15.8877C34.9447 15.8877 35.2653 15.7045 35.4485 15.3381C35.6317 14.9717 35.6317 14.6054 35.4485 14.239C35.2653 13.8726 34.9447 13.6894 34.4868 13.6894C34.0288 13.6894 33.7082 13.8726 33.5251 14.239C33.3419 14.6054 33.3419 14.9717 33.5251 15.3381C33.7082 15.7045 34.0288 15.8877 34.4868 15.8877ZM37.7841 5.9956V16.9868C37.7841 17.2845 37.6754 17.5421 37.4578 17.7596C37.2403 17.9772 36.9827 18.0859 36.685 18.0859H29.2316C28.9225 18.8301 28.4531 19.4398 27.8234 19.9149C27.1937 20.3901 26.4781 20.6849 25.6766 20.7994C25.2988 21.3489 24.838 21.8155 24.2942 22.199C23.7503 22.5826 23.1636 22.8431 22.5339 22.9804C22.053 23.5872 21.4548 24.0538 20.7392 24.3801C20.0236 24.7064 19.288 24.8467 18.5324 24.8009C17.8454 25.1901 17.1241 25.4163 16.3685 25.4792C15.6128 25.5422 14.8829 25.462 14.1788 25.2388C13.4747 25.0155 12.8049 24.7093 12.1695 24.32C11.5341 23.9307 10.9416 23.467 10.392 22.9289L5.46314 18.0859H-0.68506C-0.982738 18.0859 -1.24034 17.9772 -1.45788 17.7596C-1.67541 17.5421 -1.78418 17.2845 -1.78418 16.9868V5.44604C-1.78418 5.14836 -1.67541 4.89076 -1.45788 4.67322C-1.24034 4.45569 -0.982738 4.34692 -0.68506 4.34692H6.54509C6.70538 4.18663 6.97443 3.91185 7.35226 3.52258C7.73008 3.13331 8.002 2.85853 8.16801 2.69824C8.33402 2.53795 8.5859 2.30897 8.92365 2.01129C9.2614 1.71361 9.5505 1.49894 9.79093 1.36727C10.0314 1.23561 10.3233 1.08963 10.6668 0.929344C11.0103 0.769055 11.3652 0.657426 11.7316 0.594456C12.0979 0.531485 12.4872 0.5 12.8994 0.5H14.9087C16.0422 0.5 17.0783 0.820577 18.0172 1.46173C18.956 0.820577 19.9921 0.5 21.1256 0.5H23.9936C24.3943 0.5 24.7779 0.534348 25.1443 0.603042C25.5106 0.671738 25.8341 0.754744 26.1146 0.852062C26.3951 0.94938 26.6899 1.10108 26.999 1.30717C27.3082 1.51325 27.5629 1.69071 27.7633 1.83955C27.9636 1.98839 28.2098 2.21451 28.5017 2.51792C28.7937 2.82132 29.0169 3.06175 29.1715 3.23921C29.3261 3.41668 29.5608 3.69146 29.8756 4.06355C30.1905 4.43565 30.4281 4.71329 30.5883 4.89648H36.685C36.9827 4.89648 37.2403 5.00525 37.4578 5.22278C37.6754 5.44032 37.7841 5.69792 37.7841 5.9956Z" fill="black"/>
</svg>
