<svg width="30" height="31" viewBox="0 0 30 31" fill="none" xmlns="http://www.w3.org/2000/svg">
<g clip-path="url(#clip0_27_79)">
<path d="M6.03333 13.9452C8.43333 18.6619 12.3 22.5119 17.0167 24.9286L20.6833 21.2619C21.1333 20.8119 21.8 20.6619 22.3833 20.8619C24.25 21.4786 26.2667 21.8119 28.3333 21.8119C29.25 21.8119 30 22.5619 30 23.4786V29.2952C30 30.2119 29.25 30.9619 28.3333 30.9619C12.6833 30.9619 0 18.2786 0 2.62858C0 1.71191 0.75 0.961914 1.66667 0.961914H7.5C8.41667 0.961914 9.16667 1.71191 9.16667 2.62858C9.16667 4.71191 9.5 6.71191 10.1167 8.57858C10.3 9.16191 10.1667 9.81191 9.7 10.2786L6.03333 13.9452Z" fill="#4BCD1D"/>
</g>
<defs>
<clipPath id="clip0_27_79">
<rect width="30" height="30" fill="white" transform="translate(0 0.961914)"/>
</clipPath>
</defs>
</svg>
