<svg width="25" height="19" viewBox="0 0 25 19" fill="none" xmlns="http://www.w3.org/2000/svg">
<g clip-path="url(#clip0_229_193)">
<path d="M14.0642 18.2973C13.9148 18.1674 13.8309 17.9913 13.8309 17.8076C13.8309 17.624 13.9148 17.4478 14.0642 17.3179L22.2759 10.1847L0.797893 10.1847C0.586279 10.1847 0.38333 10.1116 0.233696 9.98168C0.0840618 9.85172 -1.29189e-06 9.67545 -1.28385e-06 9.49166C-1.27582e-06 9.30787 0.0840618 9.1316 0.233696 9.00164C0.38333 8.87168 0.586279 8.79866 0.797894 8.79866L22.2759 8.79866L14.0642 1.66543C13.9233 1.53406 13.8466 1.3603 13.8502 1.18077C13.8538 1.00124 13.9376 0.829942 14.0838 0.702973C14.23 0.576004 14.4272 0.503275 14.6339 0.500108C14.8406 0.49694 15.0407 0.563581 15.1919 0.685992L24.7667 9.00194C24.9161 9.13188 25 9.30802 25 9.49166C25 9.67531 24.9161 9.85144 24.7667 9.98138L15.1919 18.2973C15.0423 18.4271 14.8395 18.5 14.6281 18.5C14.4166 18.5 14.2138 18.4271 14.0642 18.2973Z" fill="black"/>
</g>
<defs>
<clipPath id="clip0_229_193">
<rect width="18" height="25" fill="white" transform="translate(25 0.5) rotate(90)"/>
</clipPath>
</defs>
</svg>
